<svg width="157" height="44" viewBox="0 0 157 44" fill="none" xmlns="http://www.w3.org/2000/svg">
<g clip-path="url(#clip0)">
<rect x="0.142578" y="2" width="40" height="40" rx="20" fill="#2178C8"/>
<path d="M31.2461 31.4375C29.9336 31.4063 28.6523 31.4063 27.3398 31.4375C27.0586 31.4375 26.9961 31.375 26.9961 31.0938C26.9961 28.7813 26.9961 26.4375 26.9961 24.125C26.9961 23.5938 26.9648 23.0625 26.8086 22.5625C26.3398 20.9375 24.4648 20.3438 23.1211 21.4375C22.4023 22 22.1211 22.7813 22.1211 23.7188C22.1211 25.9063 22.1211 28.0938 22.1211 30.2813C22.1211 30.5625 22.0898 30.8438 22.1211 31.1563C22.1523 31.4063 22.0273 31.4688 21.8086 31.4375C20.4648 31.4375 19.1523 31.4375 17.8086 31.4375C17.5586 31.4375 17.4961 31.375 17.4961 31.125C17.5273 29.1563 17.5273 27.1875 17.5273 25.1875C17.5273 22.75 17.5273 20.3125 17.4961 17.9063C17.4961 17.625 17.5586 17.5625 17.8086 17.5625C19.1523 17.5625 20.4648 17.5625 21.8086 17.5625C22.0586 17.5625 22.1211 17.625 22.1211 17.875C22.1211 18.375 22.1211 18.875 22.1211 19.4688C22.2148 19.375 22.2461 19.3438 22.2773 19.3125C23.4961 17.5313 25.2148 17.0313 27.2461 17.3438C29.5898 17.7188 31.0898 19.3438 31.4648 21.8438C31.5586 22.4375 31.5898 23.0313 31.5898 23.625C31.5898 26.125 31.5898 28.5938 31.5898 31.0938C31.5898 31.3438 31.5273 31.4375 31.2461 31.4375Z" fill="white"/>
<path d="M14.9961 24.5001C14.9961 26.6876 14.9961 28.8751 14.9961 31.0626C14.9961 31.3438 14.9336 31.4376 14.6523 31.4376C13.3398 31.4063 12.0273 31.4376 10.7148 31.4376C10.4648 31.4376 10.4023 31.3751 10.4023 31.1251C10.4023 26.7188 10.4023 22.2813 10.4023 17.8751C10.4023 17.6563 10.4648 17.5626 10.7148 17.5626C12.0586 17.5626 13.4023 17.5626 14.7461 17.5626C15.0273 17.5626 15.0586 17.6563 15.0586 17.9063C14.9961 20.0938 14.9961 22.2813 14.9961 24.5001Z" fill="white"/>
<path d="M15.2151 13.9375C14.9026 15.1875 13.6214 15.9063 12.1526 15.6563C10.5901 15.4063 9.71512 13.875 10.2776 12.375C10.6526 11.4375 11.5589 10.875 12.7151 10.9063C14.4651 10.875 15.6214 12.2813 15.2151 13.9375Z" fill="white"/>
<path d="M62.6666 17.144C61.4066 17.144 60.2666 16.868 59.2466 16.316C58.2386 15.752 57.4466 14.984 56.8706 14.012C56.2946 13.028 56.0066 11.924 56.0066 10.7C56.0066 9.476 56.2946 8.378 56.8706 7.406C57.4466 6.422 58.2446 5.654 59.2646 5.102C60.2846 4.538 61.4246 4.256 62.6846 4.256C63.6686 4.256 64.5686 4.424 65.3846 4.76C66.2006 5.084 66.8966 5.57 67.4726 6.218L66.3026 7.352C65.3546 6.356 64.1726 5.858 62.7566 5.858C61.8206 5.858 60.9746 6.068 60.2186 6.488C59.4626 6.908 58.8686 7.49 58.4366 8.234C58.0166 8.966 57.8066 9.788 57.8066 10.7C57.8066 11.612 58.0166 12.44 58.4366 13.184C58.8686 13.916 59.4626 14.492 60.2186 14.912C60.9746 15.332 61.8206 15.542 62.7566 15.542C64.1606 15.542 65.3426 15.038 66.3026 14.03L67.4726 15.164C66.8966 15.812 66.1946 16.304 65.3666 16.64C64.5506 16.976 63.6506 17.144 62.6666 17.144ZM74.8824 7.37C76.0944 7.37 77.0544 7.724 77.7624 8.432C78.4824 9.128 78.8424 10.154 78.8424 11.51V17H77.1144V11.708C77.1144 10.784 76.8924 10.088 76.4484 9.62C76.0044 9.152 75.3684 8.918 74.5404 8.918C73.6044 8.918 72.8664 9.194 72.3264 9.746C71.7864 10.286 71.5164 11.066 71.5164 12.086V17H69.7884V3.644H71.5164V8.81C71.8764 8.354 72.3444 8 72.9204 7.748C73.5084 7.496 74.1624 7.37 74.8824 7.37ZM90.7151 12.284C90.7151 12.416 90.7031 12.59 90.6791 12.806H82.9391C83.0471 13.646 83.4131 14.324 84.0371 14.84C84.6731 15.344 85.4591 15.596 86.3951 15.596C87.5351 15.596 88.4531 15.212 89.1491 14.444L90.1031 15.56C89.6711 16.064 89.1311 16.448 88.4831 16.712C87.8471 16.976 87.1331 17.108 86.3411 17.108C85.3331 17.108 84.4391 16.904 83.6591 16.496C82.8791 16.076 82.2731 15.494 81.8411 14.75C81.4211 14.006 81.2111 13.166 81.2111 12.23C81.2111 11.306 81.4151 10.472 81.8231 9.728C82.2431 8.984 82.8131 8.408 83.5331 8C84.2651 7.58 85.0871 7.37 85.9991 7.37C86.9111 7.37 87.7211 7.58 88.4291 8C89.1491 8.408 89.7071 8.984 90.1031 9.728C90.5111 10.472 90.7151 11.324 90.7151 12.284ZM85.9991 8.828C85.1711 8.828 84.4751 9.08 83.9111 9.584C83.3591 10.088 83.0351 10.748 82.9391 11.564H89.0591C88.9631 10.76 88.6331 10.106 88.0691 9.602C87.5171 9.086 86.8271 8.828 85.9991 8.828ZM97.2726 17.108C96.3006 17.108 95.4306 16.898 94.6626 16.478C93.9066 16.058 93.3126 15.482 92.8806 14.75C92.4486 14.006 92.2326 13.166 92.2326 12.23C92.2326 11.294 92.4486 10.46 92.8806 9.728C93.3126 8.984 93.9066 8.408 94.6626 8C95.4306 7.58 96.3006 7.37 97.2726 7.37C98.1366 7.37 98.9046 7.544 99.5766 7.892C100.261 8.24 100.789 8.744 101.161 9.404L99.8466 10.25C99.5466 9.794 99.1746 9.452 98.7306 9.224C98.2866 8.996 97.7946 8.882 97.2546 8.882C96.6306 8.882 96.0666 9.02 95.5626 9.296C95.0706 9.572 94.6806 9.968 94.3926 10.484C94.1166 10.988 93.9786 11.57 93.9786 12.23C93.9786 12.902 94.1166 13.496 94.3926 14.012C94.6806 14.516 95.0706 14.906 95.5626 15.182C96.0666 15.458 96.6306 15.596 97.2546 15.596C97.7946 15.596 98.2866 15.482 98.7306 15.254C99.1746 15.026 99.5466 14.684 99.8466 14.228L101.161 15.056C100.789 15.716 100.261 16.226 99.5766 16.586C98.9046 16.934 98.1366 17.108 97.2726 17.108ZM106.983 12.554L105.003 14.39V17H103.275V3.644H105.003V12.212L110.205 7.46H112.293L108.279 11.402L112.689 17H110.565L106.983 12.554ZM123.287 17.108C122.339 17.108 121.487 16.898 120.731 16.478C119.975 16.058 119.381 15.482 118.949 14.75C118.529 14.006 118.319 13.166 118.319 12.23C118.319 11.294 118.529 10.46 118.949 9.728C119.381 8.984 119.975 8.408 120.731 8C121.487 7.58 122.339 7.37 123.287 7.37C124.235 7.37 125.081 7.58 125.825 8C126.581 8.408 127.169 8.984 127.589 9.728C128.021 10.46 128.237 11.294 128.237 12.23C128.237 13.166 128.021 14.006 127.589 14.75C127.169 15.482 126.581 16.058 125.825 16.478C125.081 16.898 124.235 17.108 123.287 17.108ZM123.287 15.596C123.899 15.596 124.445 15.458 124.925 15.182C125.417 14.894 125.801 14.498 126.077 13.994C126.353 13.478 126.491 12.89 126.491 12.23C126.491 11.57 126.353 10.988 126.077 10.484C125.801 9.968 125.417 9.572 124.925 9.296C124.445 9.02 123.899 8.882 123.287 8.882C122.675 8.882 122.123 9.02 121.631 9.296C121.151 9.572 120.767 9.968 120.479 10.484C120.203 10.988 120.065 11.57 120.065 12.23C120.065 12.89 120.203 13.478 120.479 13.994C120.767 14.498 121.151 14.894 121.631 15.182C122.123 15.458 122.675 15.596 123.287 15.596ZM139.518 7.46V17H137.88V15.56C137.532 16.052 137.07 16.436 136.494 16.712C135.93 16.976 135.312 17.108 134.64 17.108C133.368 17.108 132.366 16.76 131.634 16.064C130.902 15.356 130.536 14.318 130.536 12.95V7.46H132.264V12.752C132.264 13.676 132.486 14.378 132.93 14.858C133.374 15.326 134.01 15.56 134.838 15.56C135.75 15.56 136.47 15.284 136.998 14.732C137.526 14.18 137.79 13.4 137.79 12.392V7.46H139.518ZM144.464 9.062C144.764 8.51 145.208 8.09 145.796 7.802C146.384 7.514 147.098 7.37 147.938 7.37V9.044C147.842 9.032 147.71 9.026 147.542 9.026C146.606 9.026 145.868 9.308 145.328 9.872C144.8 10.424 144.536 11.216 144.536 12.248V17H142.808V7.46H144.464V9.062ZM61.8386 29.37C62.7626 29.37 63.5906 29.574 64.3226 29.982C65.0546 30.39 65.6246 30.96 66.0326 31.692C66.4526 32.424 66.6626 33.27 66.6626 34.23C66.6626 35.19 66.4526 36.042 66.0326 36.786C65.6246 37.518 65.0546 38.088 64.3226 38.496C63.5906 38.904 62.7626 39.108 61.8386 39.108C61.1306 39.108 60.4826 38.97 59.8946 38.694C59.3066 38.418 58.8206 38.016 58.4366 37.488V39H56.7806V25.644H58.5086V30.9C58.8926 30.396 59.3726 30.018 59.9486 29.766C60.5246 29.502 61.1546 29.37 61.8386 29.37ZM61.6946 37.596C62.3066 37.596 62.8526 37.458 63.3326 37.182C63.8246 36.894 64.2086 36.498 64.4846 35.994C64.7726 35.478 64.9166 34.89 64.9166 34.23C64.9166 33.57 64.7726 32.988 64.4846 32.484C64.2086 31.968 63.8246 31.572 63.3326 31.296C62.8526 31.02 62.3066 30.882 61.6946 30.882C61.0946 30.882 60.5486 31.02 60.0566 31.296C59.5646 31.572 59.1806 31.968 58.9046 32.484C58.6286 32.988 58.4906 33.57 58.4906 34.23C58.4906 34.89 58.6286 35.478 58.9046 35.994C59.1806 36.498 59.5646 36.894 60.0566 37.182C60.5486 37.458 61.0946 37.596 61.6946 37.596ZM69.0501 25.644H70.7781V39H69.0501V25.644ZM78.1635 39.108C77.2155 39.108 76.3635 38.898 75.6075 38.478C74.8515 38.058 74.2575 37.482 73.8255 36.75C73.4055 36.006 73.1955 35.166 73.1955 34.23C73.1955 33.294 73.4055 32.46 73.8255 31.728C74.2575 30.984 74.8515 30.408 75.6075 30C76.3635 29.58 77.2155 29.37 78.1635 29.37C79.1115 29.37 79.9575 29.58 80.7015 30C81.4575 30.408 82.0455 30.984 82.4655 31.728C82.8975 32.46 83.1135 33.294 83.1135 34.23C83.1135 35.166 82.8975 36.006 82.4655 36.75C82.0455 37.482 81.4575 38.058 80.7015 38.478C79.9575 38.898 79.1115 39.108 78.1635 39.108ZM78.1635 37.596C78.7755 37.596 79.3215 37.458 79.8015 37.182C80.2935 36.894 80.6775 36.498 80.9535 35.994C81.2295 35.478 81.3675 34.89 81.3675 34.23C81.3675 33.57 81.2295 32.988 80.9535 32.484C80.6775 31.968 80.2935 31.572 79.8015 31.296C79.3215 31.02 78.7755 30.882 78.1635 30.882C77.5515 30.882 76.9995 31.02 76.5075 31.296C76.0275 31.572 75.6435 31.968 75.3555 32.484C75.0795 32.988 74.9415 33.57 74.9415 34.23C74.9415 34.89 75.0795 35.478 75.3555 35.994C75.6435 36.498 76.0275 36.894 76.5075 37.182C76.9995 37.458 77.5515 37.596 78.1635 37.596ZM94.6292 29.46V37.704C94.6292 39.372 94.2152 40.602 93.3872 41.394C92.5592 42.198 91.3232 42.6 89.6792 42.6C88.7792 42.6 87.9212 42.474 87.1052 42.222C86.2892 41.982 85.6292 41.634 85.1252 41.178L85.9532 39.846C86.3972 40.23 86.9432 40.53 87.5912 40.746C88.2512 40.974 88.9292 41.088 89.6252 41.088C90.7412 41.088 91.5632 40.824 92.0912 40.296C92.6312 39.768 92.9012 38.964 92.9012 37.884V37.128C92.4932 37.62 91.9892 37.992 91.3892 38.244C90.8012 38.484 90.1592 38.604 89.4632 38.604C88.5512 38.604 87.7232 38.412 86.9792 38.028C86.2472 37.632 85.6712 37.086 85.2512 36.39C84.8312 35.682 84.6212 34.878 84.6212 33.978C84.6212 33.078 84.8312 32.28 85.2512 31.584C85.6712 30.876 86.2472 30.33 86.9792 29.946C87.7232 29.562 88.5512 29.37 89.4632 29.37C90.1832 29.37 90.8492 29.502 91.4612 29.766C92.0852 30.03 92.5952 30.42 92.9912 30.936V29.46H94.6292ZM89.6612 37.092C90.2852 37.092 90.8432 36.96 91.3352 36.696C91.8392 36.432 92.2292 36.066 92.5052 35.598C92.7932 35.118 92.9372 34.578 92.9372 33.978C92.9372 33.054 92.6312 32.31 92.0192 31.746C91.4072 31.17 90.6212 30.882 89.6612 30.882C88.6892 30.882 87.8972 31.17 87.2852 31.746C86.6732 32.31 86.3672 33.054 86.3672 33.978C86.3672 34.578 86.5052 35.118 86.7812 35.598C87.0692 36.066 87.4592 36.432 87.9512 36.696C88.4552 36.96 89.0252 37.092 89.6612 37.092ZM107.057 29.46V37.704C107.057 39.372 106.643 40.602 105.815 41.394C104.987 42.198 103.751 42.6 102.107 42.6C101.207 42.6 100.349 42.474 99.533 42.222C98.717 41.982 98.057 41.634 97.553 41.178L98.381 39.846C98.825 40.23 99.371 40.53 100.019 40.746C100.679 40.974 101.357 41.088 102.053 41.088C103.169 41.088 103.991 40.824 104.519 40.296C105.059 39.768 105.329 38.964 105.329 37.884V37.128C104.921 37.62 104.417 37.992 103.817 38.244C103.229 38.484 102.587 38.604 101.891 38.604C100.979 38.604 100.151 38.412 99.407 38.028C98.675 37.632 98.099 37.086 97.679 36.39C97.259 35.682 97.049 34.878 97.049 33.978C97.049 33.078 97.259 32.28 97.679 31.584C98.099 30.876 98.675 30.33 99.407 29.946C100.151 29.562 100.979 29.37 101.891 29.37C102.611 29.37 103.277 29.502 103.889 29.766C104.513 30.03 105.023 30.42 105.419 30.936V29.46H107.057ZM102.089 37.092C102.713 37.092 103.271 36.96 103.763 36.696C104.267 36.432 104.657 36.066 104.933 35.598C105.221 35.118 105.365 34.578 105.365 33.978C105.365 33.054 105.059 32.31 104.447 31.746C103.835 31.17 103.049 30.882 102.089 30.882C101.117 30.882 100.325 31.17 99.713 31.746C99.101 32.31 98.795 33.054 98.795 33.978C98.795 34.578 98.933 35.118 99.209 35.598C99.497 36.066 99.887 36.432 100.379 36.696C100.883 36.96 101.453 37.092 102.089 37.092ZM110.359 29.46H112.087V39H110.359V29.46ZM111.223 27.624C110.887 27.624 110.605 27.516 110.377 27.3C110.161 27.084 110.053 26.82 110.053 26.508C110.053 26.196 110.161 25.932 110.377 25.716C110.605 25.488 110.887 25.374 111.223 25.374C111.559 25.374 111.835 25.482 112.051 25.698C112.279 25.902 112.393 26.16 112.393 26.472C112.393 26.796 112.279 27.072 112.051 27.3C111.835 27.516 111.559 27.624 111.223 27.624ZM120.48 29.37C121.692 29.37 122.652 29.724 123.36 30.432C124.08 31.128 124.44 32.154 124.44 33.51V39H122.712V33.708C122.712 32.784 122.49 32.088 122.046 31.62C121.602 31.152 120.966 30.918 120.138 30.918C119.202 30.918 118.464 31.194 117.924 31.746C117.384 32.286 117.114 33.066 117.114 34.086V39H115.386V29.46H117.042V30.9C117.39 30.408 117.858 30.03 118.446 29.766C119.046 29.502 119.724 29.37 120.48 29.37ZM136.817 29.46V37.704C136.817 39.372 136.403 40.602 135.575 41.394C134.747 42.198 133.511 42.6 131.867 42.6C130.967 42.6 130.109 42.474 129.293 42.222C128.477 41.982 127.817 41.634 127.313 41.178L128.141 39.846C128.585 40.23 129.131 40.53 129.779 40.746C130.439 40.974 131.117 41.088 131.813 41.088C132.929 41.088 133.751 40.824 134.279 40.296C134.819 39.768 135.089 38.964 135.089 37.884V37.128C134.681 37.62 134.177 37.992 133.577 38.244C132.989 38.484 132.347 38.604 131.651 38.604C130.739 38.604 129.911 38.412 129.167 38.028C128.435 37.632 127.859 37.086 127.439 36.39C127.019 35.682 126.809 34.878 126.809 33.978C126.809 33.078 127.019 32.28 127.439 31.584C127.859 30.876 128.435 30.33 129.167 29.946C129.911 29.562 130.739 29.37 131.651 29.37C132.371 29.37 133.037 29.502 133.649 29.766C134.273 30.03 134.783 30.42 135.179 30.936V29.46H136.817ZM131.849 37.092C132.473 37.092 133.031 36.96 133.523 36.696C134.027 36.432 134.417 36.066 134.693 35.598C134.981 35.118 135.125 34.578 135.125 33.978C135.125 33.054 134.819 32.31 134.207 31.746C133.595 31.17 132.809 30.882 131.849 30.882C130.877 30.882 130.085 31.17 129.473 31.746C128.861 32.31 128.555 33.054 128.555 33.978C128.555 34.578 128.693 35.118 128.969 35.598C129.257 36.066 129.647 36.432 130.139 36.696C130.643 36.96 131.213 37.092 131.849 37.092Z" fill="#181818"/>
</g>
<defs>
<clipPath id="clip0">
<rect width="156.857" height="44" fill="white" transform="translate(0.142578)"/>
</clipPath>
</defs>
</svg>
