<svg width="143" height="84" viewBox="0 0 143 84" fill="none" xmlns="http://www.w3.org/2000/svg">
<g clip-path="url(#clip0)">
<path d="M138.911 46.6775C138.911 46.6775 135.872 39.7903 134.547 36.4937C133.885 22.7192 122.845 11.664 109.062 10.9501C101.902 5.77416 91.7664 1.0077 82.4511 0.409271C82.1357 0.388273 81.8203 0.377775 81.5049 0.367276C112.027 -2.11044 136.293 8.15739 141.371 26.3413C143.274 33.1235 142.475 40.0947 138.911 46.6775Z" fill="white"/>
<path d="M55.5352 5.3858C20.2297 15.9266 -3.56318 40.1998 1.7358 61.0819C4.58506 72.3157 15.919 83.7908 42.5296 83.7908C64.9872 83.7908 83.6493 74.5939 96.0241 60.0321C83.9121 70.5099 67.9521 76.8511 49.9524 76.8511C20.6713 76.8406 14.5627 62.3733 14.5627 52.7354C14.5627 40.1893 24.9609 31.1604 35.7692 29.575C44.0646 14.8452 57.7747 5.95273 75.9006 5.95273C91.0405 5.95273 104.551 12.8924 113.435 23.7482C95.2986 -5.1235 64.0409 2.84509 55.5352 5.3858Z" fill="white"/>
<path d="M39.449 36.8086L30.9433 55.087H28.7459L21.9014 40.4097L25.045 36.8086L29.8498 47.2024L34.6757 36.8086H39.449Z" fill="white"/>
<path d="M41.5195 36.8296H46.3244V55.087H41.5195V36.8296Z" fill="white"/>
<path d="M67.0449 36.8296L60.9469 45.5646L67.6547 55.087H61.809L58.0345 49.7326L54.2285 55.087H48.3828L55.0907 45.5646L48.9926 36.8296H54.8278L58.024 41.3861L61.1887 36.8296H67.0449Z" fill="white"/>
<path d="M69.3428 36.8086H83.7467V41.5751H78.8999V55.087H74.095V41.5751H69.3428V36.8086Z" fill="white"/>
<path d="M87.0674 36.8296H98.4224V40.7981H91.8617V43.7693H97.6654V47.8113H91.8617V51.171H98.4224V55.087H87.0674V36.8296Z" fill="white"/>
<path d="M112.467 55.087L109.639 50.2471H106.663V55.087H101.858V36.8296H109.565C113.266 36.8296 116.294 39.8532 116.294 43.5488C116.294 45.5016 115.442 47.2444 114.128 48.4623L118.008 55.087H112.467ZM106.663 46.1H109.639C111.1 46.1 112.267 44.9557 112.267 43.4963C112.267 42.037 111.1 40.8716 109.639 40.8716H106.663V46.1Z" fill="white"/>
<path d="M119.636 55.087L128.173 36.8296H130.339L136.984 51.2759L134.145 55.087L133.02 52.7038H125.534L124.441 55.087H119.636ZM127.405 48.6617H131.138L129.287 44.6407L127.405 48.6617Z" fill="white"/>
<path d="M132.539 57.4177C129.879 58.8036 124.454 61.7852 122.288 62.9611C124.044 63.0661 126.042 63.0871 127.009 63.0556C126.41 63.507 103.826 80.4836 70.7705 79.3287C95.005 77.9009 112.321 64.116 112.679 63.8325C111.627 63.7065 111.039 63.6645 109.977 63.5595C113.162 61.5858 119.292 57.4072 119.292 57.4072H132.539V57.4177Z" fill="white"/>
</g>
<defs>
<clipPath id="clip0">
<rect width="141.38" height="83.7909" fill="white" transform="translate(0.998047)"/>
</clipPath>
</defs>
</svg>
