<svg width="144" height="169" viewBox="0 0 144 169" fill="none" xmlns="http://www.w3.org/2000/svg">
<path d="M66.0508 7.86763e-07C32.8442 0.00566903 4.72874 24.3999 0.176484 57.1567C-1.70754 71.1591 11.9663 93.5539 18.6372 106.022C21.7045 111.663 25.5522 116.847 30.0691 121.42L77.0001 168.156L123.932 121.42C136.538 108.983 143.644 92.0531 143.675 74.382C143.669 37.8004 102.785 -0.00629726 66.0508 7.86763e-07ZM77.0001 113.748C53.7031 113.748 34.8167 94.9401 34.8167 71.74V71.7368C34.8433 48.5481 53.7145 29.7566 77.0001 29.7321C100.297 29.7321 119.183 48.5399 119.183 71.74C119.183 94.9401 100.297 113.748 77.0001 113.748Z" fill="white"/>
</svg>
