<svg width="257" height="60" viewBox="0 0 257 60" fill="none" xmlns="http://www.w3.org/2000/svg">
<g clip-path="url(#clip0)">
<path d="M99.0302 33.2075C99.0302 33.2075 96.8685 28.3078 95.926 25.9625C95.4548 16.163 87.601 8.29809 77.795 7.79019C72.7013 4.10793 65.4907 0.71696 58.8636 0.291221C58.6392 0.276283 58.4148 0.268814 58.1904 0.261345C79.9043 -1.50136 97.1677 5.80341 100.78 18.7399C102.134 23.5649 101.566 28.5244 99.0302 33.2075Z" fill="url(#paint0_linear)"/>
<path d="M39.715 3.83161C14.5978 11.3306 -2.32895 28.5991 1.44087 43.4551C3.4679 51.4471 11.5311 59.6108 30.4625 59.6108C46.4394 59.6108 59.716 53.0679 68.5197 42.7082C59.903 50.1624 48.5487 54.6737 35.7432 54.6737C14.912 54.6662 10.5662 44.3738 10.5662 37.5172C10.5662 28.5916 17.9638 22.1682 25.653 21.0404C31.5546 10.5613 41.3082 4.23495 54.2034 4.23495C64.9743 4.23495 74.5859 9.17201 80.9063 16.8951C68.0036 -3.64495 45.7662 2.02409 39.715 3.83161Z" fill="#00B1DF"/>
<path d="M28.2709 26.1866L22.2197 39.1903H20.6565L15.7871 28.7485L18.0236 26.1866L21.4418 33.581L24.8751 26.1866H28.2709Z" fill="#0D0C3A"/>
<path d="M29.7441 26.2017H33.1624V39.1904H29.7441V26.2017Z" fill="#0D0C3A"/>
<path d="M47.9056 26.2017L43.5673 32.4159L48.3394 39.1904H44.1806L41.4954 35.3812L38.7877 39.1904H34.6289L39.401 32.4159L35.0627 26.2017H39.214L41.4879 29.4432L43.7393 26.2017H47.9056Z" fill="#0D0C3A"/>
<path d="M49.5361 26.1866H59.7834V29.5776H56.3353V39.1903H52.917V29.5776H49.5361V26.1866Z" fill="#0D0C3A"/>
<path d="M62.1465 26.2017H70.2247V29.025H65.5573V31.1387H69.6861V34.0143H65.5573V36.4044H70.2247V39.1904H62.1465V26.2017Z" fill="#0D0C3A"/>
<path d="M80.218 39.1904L78.206 35.7472H76.0892V39.1904H72.6709V26.2017H78.1536C80.7865 26.2017 82.9407 28.3528 82.9407 30.9819C82.9407 32.3711 82.3348 33.611 81.3998 34.4774L84.1599 39.1904H80.218ZM76.0892 32.7969H78.206C79.2456 32.7969 80.0759 31.9827 80.0759 30.9445C80.0759 29.9063 79.2456 29.0773 78.206 29.0773H76.0892V32.7969Z" fill="#0D0C3A"/>
<path d="M85.3193 39.1904L91.3929 26.2017H92.9338L97.661 36.4791L95.6415 39.1904L94.8411 37.4949H89.5155L88.7376 39.1904H85.3193ZM90.8469 34.6193H93.5023L92.1858 31.7587L90.8469 34.6193Z" fill="#0D0C3A"/>
<path d="M94.4976 40.8485C92.6052 41.8345 88.7456 43.9557 87.2048 44.7922C88.4539 44.8669 89.875 44.8818 90.5632 44.8594C90.1368 45.1806 74.0702 57.2581 50.5537 56.4365C67.7947 55.4207 80.1139 45.6138 80.3682 45.4122C79.6202 45.3225 79.2014 45.2926 78.4459 45.218C80.7123 43.8138 85.073 40.8411 85.073 40.8411H94.4976V40.8485Z" fill="url(#paint1_linear)"/>
</g>
<path d="M134.209 13.2H136.477V23H134.209V13.2ZM143.227 15.356C144.16 15.356 144.911 15.636 145.481 16.196C146.059 16.756 146.349 17.5867 146.349 18.688V23H144.165V19.024C144.165 18.4267 144.034 17.9833 143.773 17.694C143.511 17.3953 143.133 17.246 142.639 17.246C142.088 17.246 141.649 17.4187 141.323 17.764C140.996 18.1 140.833 18.604 140.833 19.276V23H138.649V15.468H140.735V16.35C141.024 16.0327 141.383 15.79 141.813 15.622C142.242 15.4447 142.713 15.356 143.227 15.356ZM152.906 15.356C153.84 15.356 154.591 15.636 155.16 16.196C155.739 16.756 156.028 17.5867 156.028 18.688V23H153.844V19.024C153.844 18.4267 153.714 17.9833 153.452 17.694C153.191 17.3953 152.813 17.246 152.318 17.246C151.768 17.246 151.329 17.4187 151.002 17.764C150.676 18.1 150.512 18.604 150.512 19.276V23H148.328V15.468H150.414V16.35C150.704 16.0327 151.063 15.79 151.492 15.622C151.922 15.4447 152.393 15.356 152.906 15.356ZM161.674 23.112C160.881 23.112 160.167 22.9487 159.532 22.622C158.907 22.286 158.417 21.824 158.062 21.236C157.707 20.648 157.53 19.9807 157.53 19.234C157.53 18.4873 157.707 17.82 158.062 17.232C158.417 16.644 158.907 16.1867 159.532 15.86C160.167 15.524 160.881 15.356 161.674 15.356C162.467 15.356 163.177 15.524 163.802 15.86C164.427 16.1867 164.917 16.644 165.272 17.232C165.627 17.82 165.804 18.4873 165.804 19.234C165.804 19.9807 165.627 20.648 165.272 21.236C164.917 21.824 164.427 22.286 163.802 22.622C163.177 22.9487 162.467 23.112 161.674 23.112ZM161.674 21.32C162.234 21.32 162.691 21.1333 163.046 20.76C163.41 20.3773 163.592 19.8687 163.592 19.234C163.592 18.5993 163.41 18.0953 163.046 17.722C162.691 17.3393 162.234 17.148 161.674 17.148C161.114 17.148 160.652 17.3393 160.288 17.722C159.924 18.0953 159.742 18.5993 159.742 19.234C159.742 19.8687 159.924 20.3773 160.288 20.76C160.652 21.1333 161.114 21.32 161.674 21.32ZM174.535 15.468L171.357 23H169.103L165.939 15.468H168.193L170.279 20.592L172.435 15.468H174.535ZM178.218 15.356C179.385 15.356 180.281 15.636 180.906 16.196C181.531 16.7467 181.844 17.582 181.844 18.702V23H179.8V22.062C179.389 22.762 178.624 23.112 177.504 23.112C176.925 23.112 176.421 23.014 175.992 22.818C175.572 22.622 175.25 22.3513 175.026 22.006C174.802 21.6607 174.69 21.2687 174.69 20.83C174.69 20.13 174.951 19.5793 175.474 19.178C176.006 18.7767 176.823 18.576 177.924 18.576H179.66C179.66 18.1 179.515 17.736 179.226 17.484C178.937 17.2227 178.503 17.092 177.924 17.092C177.523 17.092 177.126 17.1573 176.734 17.288C176.351 17.4093 176.025 17.5773 175.754 17.792L174.97 16.266C175.381 15.9767 175.871 15.7527 176.44 15.594C177.019 15.4353 177.611 15.356 178.218 15.356ZM178.05 21.642C178.423 21.642 178.755 21.558 179.044 21.39C179.333 21.2127 179.539 20.956 179.66 20.62V19.85H178.162C177.266 19.85 176.818 20.144 176.818 20.732C176.818 21.012 176.925 21.236 177.14 21.404C177.364 21.5627 177.667 21.642 178.05 21.642ZM188.679 22.636C188.464 22.7947 188.198 22.916 187.881 23C187.573 23.0747 187.246 23.112 186.901 23.112C186.005 23.112 185.309 22.8833 184.815 22.426C184.329 21.9687 184.087 21.2967 184.087 20.41V17.316H182.925V15.636H184.087V13.802H186.271V15.636H188.147V17.316H186.271V20.382C186.271 20.6993 186.35 20.9467 186.508 21.124C186.677 21.292 186.91 21.376 187.209 21.376C187.554 21.376 187.848 21.2827 188.091 21.096L188.679 22.636ZM189.904 15.468H192.088V23H189.904V15.468ZM190.996 14.418C190.595 14.418 190.268 14.3013 190.016 14.068C189.764 13.8347 189.638 13.5453 189.638 13.2C189.638 12.8547 189.764 12.5653 190.016 12.332C190.268 12.0987 190.595 11.982 190.996 11.982C191.398 11.982 191.724 12.094 191.976 12.318C192.228 12.542 192.354 12.822 192.354 13.158C192.354 13.522 192.228 13.8253 191.976 14.068C191.724 14.3013 191.398 14.418 190.996 14.418ZM197.699 23.112C196.906 23.112 196.192 22.9487 195.557 22.622C194.932 22.286 194.442 21.824 194.087 21.236C193.733 20.648 193.555 19.9807 193.555 19.234C193.555 18.4873 193.733 17.82 194.087 17.232C194.442 16.644 194.932 16.1867 195.557 15.86C196.192 15.524 196.906 15.356 197.699 15.356C198.493 15.356 199.202 15.524 199.827 15.86C200.453 16.1867 200.943 16.644 201.297 17.232C201.652 17.82 201.829 18.4873 201.829 19.234C201.829 19.9807 201.652 20.648 201.297 21.236C200.943 21.824 200.453 22.286 199.827 22.622C199.202 22.9487 198.493 23.112 197.699 23.112ZM197.699 21.32C198.259 21.32 198.717 21.1333 199.071 20.76C199.435 20.3773 199.617 19.8687 199.617 19.234C199.617 18.5993 199.435 18.0953 199.071 17.722C198.717 17.3393 198.259 17.148 197.699 17.148C197.139 17.148 196.677 17.3393 196.313 17.722C195.949 18.0953 195.767 18.5993 195.767 19.234C195.767 19.8687 195.949 20.3773 196.313 20.76C196.677 21.1333 197.139 21.32 197.699 21.32ZM207.867 15.356C208.801 15.356 209.552 15.636 210.121 16.196C210.7 16.756 210.989 17.5867 210.989 18.688V23H208.805V19.024C208.805 18.4267 208.675 17.9833 208.413 17.694C208.152 17.3953 207.774 17.246 207.279 17.246C206.729 17.246 206.29 17.4187 205.963 17.764C205.637 18.1 205.473 18.604 205.473 19.276V23H203.289V15.468H205.375V16.35C205.665 16.0327 206.024 15.79 206.453 15.622C206.883 15.4447 207.354 15.356 207.867 15.356ZM140.369 34.06C141.657 34.06 142.8 34.326 143.799 34.858C144.807 35.3807 145.591 36.104 146.151 37.028C146.711 37.952 146.991 38.9973 146.991 40.164C146.991 40.9853 146.87 41.6947 146.627 42.292C146.394 42.88 146.062 43.328 145.633 43.636C145.204 43.944 144.7 44.098 144.121 44.098C143.645 44.098 143.244 43.9953 142.917 43.79C142.59 43.5847 142.352 43.2813 142.203 42.88C141.699 43.692 140.901 44.098 139.809 44.098C139.212 44.098 138.666 43.9487 138.171 43.65C137.676 43.3513 137.284 42.936 136.995 42.404C136.715 41.8627 136.575 41.2467 136.575 40.556C136.575 39.8747 136.715 39.268 136.995 38.736C137.284 38.1947 137.672 37.7747 138.157 37.476C138.652 37.1773 139.202 37.028 139.809 37.028C140.733 37.028 141.452 37.336 141.965 37.952V37.126H143.869V41.662C143.869 42.2593 144.093 42.558 144.541 42.558C144.868 42.558 145.12 42.362 145.297 41.97C145.484 41.578 145.577 40.9853 145.577 40.192C145.577 39.2493 145.358 38.4187 144.919 37.7C144.49 36.972 143.878 36.4073 143.085 36.006C142.301 35.5953 141.396 35.39 140.369 35.39C139.342 35.39 138.432 35.6093 137.639 36.048C136.855 36.4773 136.244 37.0747 135.805 37.84C135.376 38.6053 135.161 39.4733 135.161 40.444C135.161 41.4333 135.376 42.3153 135.805 43.09C136.234 43.8553 136.836 44.4527 137.611 44.882C138.395 45.3207 139.296 45.54 140.313 45.54C141.321 45.54 142.24 45.3347 143.071 44.924L143.519 46.212C143.099 46.4267 142.6 46.59 142.021 46.702C141.452 46.8233 140.882 46.884 140.313 46.884C138.988 46.884 137.816 46.604 136.799 46.044C135.782 45.4933 134.993 44.728 134.433 43.748C133.873 42.768 133.593 41.6667 133.593 40.444C133.593 39.2307 133.873 38.1387 134.433 37.168C135.002 36.1973 135.8 35.4367 136.827 34.886C137.854 34.3353 139.034 34.06 140.369 34.06ZM140.243 42.488C140.756 42.488 141.176 42.32 141.503 41.984C141.83 41.6387 141.993 41.1627 141.993 40.556C141.993 39.9587 141.83 39.492 141.503 39.156C141.176 38.82 140.756 38.652 140.243 38.652C139.72 38.652 139.3 38.8247 138.983 39.17C138.666 39.506 138.507 39.968 138.507 40.556C138.507 41.1533 138.666 41.6247 138.983 41.97C139.3 42.3153 139.72 42.488 140.243 42.488ZM148.701 34.2H150.969V44H148.701V34.2ZM153.295 34.2H155.563V44H153.295V34.2ZM161.319 44.112C160.525 44.112 159.811 43.9487 159.177 43.622C158.551 43.286 158.061 42.824 157.707 42.236C157.352 41.648 157.175 40.9807 157.175 40.234C157.175 39.4873 157.352 38.82 157.707 38.232C158.061 37.644 158.551 37.1867 159.177 36.86C159.811 36.524 160.525 36.356 161.319 36.356C162.112 36.356 162.821 36.524 163.447 36.86C164.072 37.1867 164.562 37.644 164.917 38.232C165.271 38.82 165.449 39.4873 165.449 40.234C165.449 40.9807 165.271 41.648 164.917 42.236C164.562 42.824 164.072 43.286 163.447 43.622C162.821 43.9487 162.112 44.112 161.319 44.112ZM161.319 42.32C161.879 42.32 162.336 42.1333 162.691 41.76C163.055 41.3773 163.237 40.8687 163.237 40.234C163.237 39.5993 163.055 39.0953 162.691 38.722C162.336 38.3393 161.879 38.148 161.319 38.148C160.759 38.148 160.297 38.3393 159.933 38.722C159.569 39.0953 159.387 39.5993 159.387 40.234C159.387 40.8687 159.569 41.3773 159.933 41.76C160.297 42.1333 160.759 42.32 161.319 42.32ZM168.163 36.048H165.027V34.2H173.567V36.048H170.431V44H168.163V36.048ZM186.34 42.18V44H178.752V34.2H186.158V36.02H181.006V38.148H185.556V39.912H181.006V42.18H186.34ZM195.608 33.612V44H193.522V43.132C192.98 43.7853 192.196 44.112 191.17 44.112C190.46 44.112 189.816 43.9533 189.238 43.636C188.668 43.3187 188.22 42.866 187.894 42.278C187.567 41.69 187.404 41.0087 187.404 40.234C187.404 39.4593 187.567 38.778 187.894 38.19C188.22 37.602 188.668 37.1493 189.238 36.832C189.816 36.5147 190.46 36.356 191.17 36.356C192.131 36.356 192.882 36.6593 193.424 37.266V33.612H195.608ZM191.548 42.32C192.098 42.32 192.556 42.1333 192.92 41.76C193.284 41.3773 193.466 40.8687 193.466 40.234C193.466 39.5993 193.284 39.0953 192.92 38.722C192.556 38.3393 192.098 38.148 191.548 38.148C190.988 38.148 190.526 38.3393 190.162 38.722C189.798 39.0953 189.616 39.5993 189.616 40.234C189.616 40.8687 189.798 41.3773 190.162 41.76C190.526 42.1333 190.988 42.32 191.548 42.32ZM205.399 36.468V42.74C205.399 44.1213 205.04 45.148 204.321 45.82C203.602 46.492 202.552 46.828 201.171 46.828C200.443 46.828 199.752 46.7393 199.099 46.562C198.446 46.3847 197.904 46.128 197.475 45.792L198.343 44.224C198.66 44.4853 199.062 44.6907 199.547 44.84C200.032 44.9987 200.518 45.078 201.003 45.078C201.759 45.078 202.314 44.9053 202.669 44.56C203.033 44.224 203.215 43.7107 203.215 43.02V42.698C202.646 43.3233 201.852 43.636 200.835 43.636C200.144 43.636 199.51 43.4867 198.931 43.188C198.362 42.88 197.909 42.4507 197.573 41.9C197.237 41.3493 197.069 40.7147 197.069 39.996C197.069 39.2773 197.237 38.6427 197.573 38.092C197.909 37.5413 198.362 37.1167 198.931 36.818C199.51 36.51 200.144 36.356 200.835 36.356C201.927 36.356 202.758 36.7153 203.327 37.434V36.468H205.399ZM201.269 41.844C201.848 41.844 202.319 41.676 202.683 41.34C203.056 40.9947 203.243 40.5467 203.243 39.996C203.243 39.4453 203.056 39.002 202.683 38.666C202.319 38.3207 201.848 38.148 201.269 38.148C200.69 38.148 200.214 38.3207 199.841 38.666C199.468 39.002 199.281 39.4453 199.281 39.996C199.281 40.5467 199.468 40.9947 199.841 41.34C200.214 41.676 200.69 41.844 201.269 41.844ZM214.81 40.262C214.81 40.29 214.796 40.486 214.768 40.85H209.07C209.172 41.3167 209.415 41.6853 209.798 41.956C210.18 42.2267 210.656 42.362 211.226 42.362C211.618 42.362 211.963 42.306 212.262 42.194C212.57 42.0727 212.854 41.886 213.116 41.634L214.278 42.894C213.568 43.706 212.532 44.112 211.17 44.112C210.32 44.112 209.569 43.9487 208.916 43.622C208.262 43.286 207.758 42.824 207.404 42.236C207.049 41.648 206.872 40.9807 206.872 40.234C206.872 39.4967 207.044 38.834 207.39 38.246C207.744 37.6487 208.225 37.1867 208.832 36.86C209.448 36.524 210.134 36.356 210.89 36.356C211.627 36.356 212.294 36.5147 212.892 36.832C213.489 37.1493 213.956 37.6067 214.292 38.204C214.637 38.792 214.81 39.478 214.81 40.262ZM210.904 38.008C210.409 38.008 209.994 38.148 209.658 38.428C209.322 38.708 209.116 39.0907 209.042 39.576H212.752C212.677 39.1 212.472 38.722 212.136 38.442C211.8 38.1527 211.389 38.008 210.904 38.008Z" fill="#0D0C3A"/>
<defs>
<linearGradient id="paint0_linear" x1="58.1937" y1="16.6024" x2="101.496" y2="16.6024" gradientUnits="userSpaceOnUse">
<stop stop-color="#00B1DF"/>
<stop offset="1" stop-color="#006EC2"/>
</linearGradient>
<linearGradient id="paint1_linear" x1="50.5543" y1="48.6625" x2="94.4971" y2="48.6625" gradientUnits="userSpaceOnUse">
<stop stop-color="#00B1DF"/>
<stop offset="1" stop-color="#006EC2"/>
</linearGradient>
<clipPath id="clip0">
<rect width="100.581" height="59.6108" fill="white" transform="translate(0.916992)"/>
</clipPath>
</defs>
</svg>
